<svg width="580" height="603" viewBox="0 0 580 603" fill="none" xmlns="http://www.w3.org/2000/svg">
<path d="M214.764 255.163L100.723 69.5169L180.923 40L240.929 227.324L214.764 255.163Z" fill="#34B67A"/>
<path d="M214.764 255.163L10 193.954L60.6234 84.2754L227.846 241.244L214.764 255.163Z" fill="#0BA55F"/>
<path d="M214.441 228.66C178.307 267.106 180.216 327.532 218.705 363.661C301.397 441.282 402.243 487.447 506.552 502.857C484.622 399.796 432.22 302.086 349.529 224.465C311.039 188.337 250.574 190.214 214.441 228.66Z" fill="#F46E3B"/>
<path d="M345.443 325.429C349.289 329.039 355.341 328.851 358.952 325.01L400.92 280.356C396.922 275.372 392.712 270.502 388.515 265.646L345.017 311.929C341.406 315.771 341.597 321.819 345.443 325.429ZM303.211 272.687L348.947 224.024C344.128 219.579 339.002 215.711 333.612 212.433L289.276 259.606C285.665 263.448 285.856 269.496 289.702 273.106C293.548 276.717 299.6 276.529 303.211 272.687ZM317.573 299.268C321.419 302.878 327.471 302.69 331.082 298.848L375.875 251.188C371.551 246.552 366.948 242.1 362.45 237.564L317.146 285.768C313.536 289.609 313.727 295.657 317.573 299.268Z" fill="#E56239"/>
<path d="M237.077 212.024C266.312 195.275 302.755 195.322 332.072 212.609L288.547 258.921C284.558 263.166 284.769 269.847 289.018 273.835C293.133 277.698 299.535 277.625 303.558 273.758L303.939 273.372L349.043 225.381C353.216 229.302 357.31 233.275 361.328 237.297L316.418 285.083C312.428 289.328 312.64 296.009 316.889 299.997C321.004 303.86 327.406 303.786 331.429 299.919L331.811 299.533L375.975 252.541C379.872 256.761 383.69 261.029 387.427 265.345L344.288 311.244C340.299 315.489 340.51 322.17 344.759 326.158C348.874 330.021 355.276 329.947 359.299 326.08L359.681 325.694L401.027 281.699C453.532 347.455 488.306 422.97 505.27 501.653C402.476 486.186 303.121 440.774 221.327 364.742L219.39 362.932C188.137 333.595 181.257 288.07 199.55 251.658L214.478 256.121L215.069 256.298L215.493 255.848L228.575 241.929L228.574 241.928L228.669 241.829L229.261 241.199L229.26 241.198L241.657 228.009L242.061 227.58L241.881 227.019L237.077 212.024ZM388.483 267.14C392.249 271.498 396.003 275.86 399.594 280.307L358.224 324.324C354.991 327.763 349.572 327.933 346.128 324.7C342.792 321.569 342.527 316.388 345.452 312.941L345.745 312.613L388.483 267.14ZM362.472 239.001C366.528 243.075 370.612 247.061 374.501 251.188L330.353 298.163C327.12 301.602 321.701 301.771 318.257 298.538C314.921 295.407 314.657 290.227 317.582 286.78L317.875 286.452L362.472 239.001ZM333.781 213.712C338.586 216.692 343.177 220.15 347.522 224.078L302.482 272.002C299.25 275.441 293.831 275.61 290.387 272.377C287.051 269.246 286.786 264.066 289.711 260.619L290.005 260.291L333.781 213.712ZM226.432 241.287L216.477 251.881L214.931 253.524L206.569 239.912C208.957 236.506 211.596 233.219 214.489 230.076L226.432 241.287ZM212.541 253.454L200.484 249.851C201.952 247.081 203.567 244.366 205.332 241.72L212.541 253.454ZM175.968 193.918L204.183 239.849C202.103 242.903 200.22 246.048 198.531 249.267L11.3906 193.326L60.9492 85.9531L175.968 193.918ZM239.796 227.067L227.802 239.83L215.859 228.619C221.771 222.459 228.321 217.27 235.31 213.062L239.796 227.067ZM213.031 228.708C210.273 231.704 207.739 234.828 205.431 238.06L181.512 199.122L213.031 228.708ZM234.683 211.104C227.388 215.449 220.555 220.834 214.4 227.251L177.532 192.643L102.214 70.0332L180.289 41.2988L234.683 211.104Z" stroke="white" stroke-width="2"/>
<path d="M217.704 254.341L107.458 74.7596L181.646 48.1169L239.655 229.321L217.704 254.341Z" fill="#34B67A"/>
<path d="M217.704 254.341L19.7537 195.131L66.5664 93.6454L228.225 245.485L217.704 254.341Z" fill="#0BA55F"/>
<path d="M217.392 228.703C182.461 265.893 184.306 324.346 221.514 359.294C301.454 434.379 398.944 479.036 499.782 493.942C478.582 394.248 427.925 299.731 347.984 224.646C310.776 189.697 252.323 191.513 217.392 228.703Z" fill="#F46E3B"/>
<path d="M344.035 322.311C347.753 325.803 353.604 325.621 357.094 321.905L397.666 278.71C393.801 273.889 389.731 269.179 385.674 264.481L343.623 309.252C340.132 312.968 340.317 318.819 344.035 322.311ZM303.208 271.292L347.422 224.219C342.763 219.919 337.808 216.178 332.597 213.006L289.736 258.639C286.246 262.355 286.43 268.205 290.149 271.698C293.867 275.19 299.717 275.008 303.208 271.292ZM317.092 297.004C320.81 300.497 326.66 300.315 330.151 296.599L373.454 250.495C369.273 246.011 364.824 241.704 360.476 237.317L316.679 283.945C313.189 287.662 313.374 293.512 317.092 297.004Z" fill="#E56239"/>
<path d="M166.946 196.858L172.057 191.626C179.536 197.938 184.082 201.594 187.279 206.497L182.168 211.729L166.946 196.858Z" fill="#0BA55F"/>
<path d="M196.865 206.786L191.33 210.69C185.4 202.905 181.576 198.719 177.668 191.19L183.793 187.192L196.865 206.786Z" fill="#34B67A"/>
</svg>
